<svg xmlns="http://www.w3.org/2000/svg" viewBox="0 0 48 60" x="0px" y="0px"><title>Ui vol.1</title><g data-name="Layer 11"><path d="M41.40137,9.25342H32.89813a9.07075,9.07075,0,0,0-17.79626,0H6.59863a1.00005,1.00005,0,0,0-1,1V45.05664a.99974.99974,0,0,0,1,1H41.40137a.99974.99974,0,0,0,1-1V10.25342A1.00005,1.00005,0,0,0,41.40137,9.25342ZM24,3.94385a7.079,7.079,0,0,1,6.84167,5.30957H17.15833A7.079,7.079,0,0,1,24,3.94385ZM40.40137,44.05664H7.59863V11.25342h7.32813v4.12744a1,1,0,0,0,2,0V11.25342H31.07324v4.12744a1,1,0,1,0,2,0V11.25342h7.32813Z"/></g></svg>