<svg id="Layer_1" data-name="Layer 1" xmlns="http://www.w3.org/2000/svg" width="48" height="60" viewBox="0 0 48 60"><defs><style>.cls-1{fill:#edff00;}</style></defs><path d="M41.4,9.25H32.9a9.07,9.07,0,0,0-17.8,0H6.6a1,1,0,0,0-1,1V45.06a1,1,0,0,0,1,1H41.4a1,1,0,0,0,1-1h0V10.25A1,1,0,0,0,41.4,9.25ZM24,3.94a7.08,7.08,0,0,1,6.84,5.31H17.16A7.08,7.08,0,0,1,24,3.94ZM40.4,44.06H7.6V11.25h7.33v4.13a1,1,0,1,0,2,0V11.25H31.07v4.13a1,1,0,1,0,2,0V11.25H40.4Z"/><circle class="cls-1" cx="38.31" cy="41.78" r="8.54"/></svg>