<svg id="Lag_1" data-name="Lag 1" xmlns="http://www.w3.org/2000/svg" width="160.49mm" height="34.26mm" viewBox="0 0 454.94 97.13"><path d="M390.65,18h4.47c3.84,0,7.68,0,11.52,0a1.52,1.52,0,0,1,1.67,1.1Q413.43,31,418.6,42.94a2.24,2.24,0,0,0,.71,1V18.07h17.21V77.32h-1.3c-5.16,0-10.31,0-15.47,0a1.61,1.61,0,0,1-1.82-1.2c-3.12-8-6.32-16-9.49-24.06a2.15,2.15,0,0,0-.56-.86v26H390.65Z"/><path d="M59.09,36h-19c0-.54,0-1,0-1.53,0-1.64,0-3.28-.15-4.91-.18-1.83-.75-2.41-2.22-2.64a3.53,3.53,0,0,0-4,1.71c-1.45,2.89-.31,7.27,2.52,8.83s5.7,2.71,8.49,4.16q4.77,2.51,9.42,5.23C58,49,60,52.52,60.6,56.84a36.14,36.14,0,0,1,.08,9.91c-.54,4.27-2.94,7-6.75,8.75-5.59,2.57-11.49,3.21-17.54,3a36.43,36.43,0,0,1-13.31-2.69c-4.8-2-7.72-5.43-8.16-10.72-.24-3-.36-6-.55-9H33.68c0,.81,0,1.63,0,2.46,0,2.35,0,4.71.21,7.06.15,1.9.85,2.56,2.38,2.81,2.11.35,3.73-.23,4.47-1.73a6.79,6.79,0,0,0,.59-2.17,19.39,19.39,0,0,0,0-2.64,7,7,0,0,0-4.07-6.51C32,52.75,26.91,50,21.75,47.28A13.45,13.45,0,0,1,14.39,38a23.44,23.44,0,0,1,.43-11.73c1-3.36,3.47-5.37,6.49-6.81A28.12,28.12,0,0,1,31.13,17c6.45-.55,12.85-.34,19.06,1.78.38.13.75.29,1.12.42,4.94,1.69,7.57,5.13,7.77,10.36C59.15,31.65,59.09,33.76,59.09,36Z"/><path d="M349.69,18.09v13.8h-17V40h17V53.38h-17v10h16.94V77.23H314.09V18.1Z"/><path d="M239.25,18.05H274V32.9H257.88V41H274V55.34h-16.1V77.26h-18.6Z"/><path d="M202.22,60.35V77.26h-38V18.1h18.52V60.35Z"/><path d="M102.41,18.06h19.48v59.2H102.41Z"/></svg>